<?xml version="1.0" standalone="no"?><!-- Generator: Gravit.io --><svg xmlns="http://www.w3.org/2000/svg" xmlns:xlink="http://www.w3.org/1999/xlink" style="isolation:isolate" viewBox="0 0 24 24" width="24" height="24"><defs><clipPath id="_clipPath_kOGQhvpJ2SynzS2tEWr7wllZlktibWYa"><rect width="24" height="24"/></clipPath></defs><g clip-path="url(#_clipPath_kOGQhvpJ2SynzS2tEWr7wllZlktibWYa)"><mask id="_mask_QSuULcURQVUhy7HpokV2v3eOhLRJomtP" x="-200%" y="-200%" width="400%" height="400%"><rect x="-200%" y="-200%" width="400%" height="400%" style="fill:white;"/><path d=" M 7 2 L 17 2 C 19.76 2 22 4.24 22 7 L 22 17 C 22 19.76 19.76 22 17 22 L 7 22 C 4.24 22 2 19.76 2 17 L 2 7 C 2 4.24 4.24 2 7 2 Z " fill="black" stroke="none"/></mask><path d=" M 7 2 L 17 2 C 19.76 2 22 4.24 22 7 L 22 17 C 22 19.76 19.76 22 17 22 L 7 22 C 4.24 22 2 19.76 2 17 L 2 7 C 2 4.24 4.24 2 7 2 Z " fill="none" mask="url(#_mask_QSuULcURQVUhy7HpokV2v3eOhLRJomtP)" vector-effect="non-scaling-stroke" stroke-width="4" stroke="rgb(255,255,255)" stroke-linejoin="round" stroke-linecap="round" stroke-miterlimit="2"/><mask id="_mask_9wGRsJtOzLkTf84heotkg30uDFEgBIfY" x="-200%" y="-200%" width="400%" height="400%"><rect x="-200%" y="-200%" width="400%" height="400%" style="fill:white;"/><path d=" M 16 11.37 C 16.253 13.077 15.383 14.754 13.842 15.53 C 12.3 16.306 10.435 16.005 9.215 14.785 C 7.995 13.565 7.694 11.7 8.47 10.158 C 9.246 8.617 10.923 7.747 12.63 8 C 14.373 8.258 15.742 9.627 16 11.37 Z " fill="black" stroke="none"/></mask><path d=" M 16 11.37 C 16.253 13.077 15.383 14.754 13.842 15.53 C 12.3 16.306 10.435 16.005 9.215 14.785 C 7.995 13.565 7.694 11.7 8.47 10.158 C 9.246 8.617 10.923 7.747 12.63 8 C 14.373 8.258 15.742 9.627 16 11.37 Z " fill="none" mask="url(#_mask_9wGRsJtOzLkTf84heotkg30uDFEgBIfY)" vector-effect="non-scaling-stroke" stroke-width="4" stroke="rgb(255,255,255)" stroke-opacity="100" stroke-linejoin="round" stroke-linecap="round" stroke-miterlimit="4"/></g></svg>