<?xml version="1.0" standalone="no"?><!-- Generator: Gravit.io --><svg xmlns="http://www.w3.org/2000/svg" xmlns:xlink="http://www.w3.org/1999/xlink" style="isolation:isolate" viewBox="0 0 24 24" width="24" height="24"><defs><clipPath id="_clipPath_l8F914wETuqNr3uF0RxmuNdOt2tFqJ0T"><rect width="24" height="24"/></clipPath></defs><g clip-path="url(#_clipPath_l8F914wETuqNr3uF0RxmuNdOt2tFqJ0T)"><path d=" M 23 3 C 22.042 3.675 20.982 4.192 19.86 4.53 C 18.626 3.112 16.638 2.614 14.882 3.284 C 13.126 3.955 11.975 5.65 12 7.53 L 12 8.53 C 8.431 8.623 5.052 6.922 3 4 C 3 4 -1 13 8 17 C 5.941 18.398 3.487 19.099 1 19 C 10 24 21 19 21 7.5 C 20.999 7.221 20.972 6.944 20.92 6.67 C 21.941 5.663 22.661 4.393 23 3 Z " fill="none" vector-effect="non-scaling-stroke" stroke-width="2" stroke="rgb(255,255,255)" stroke-linejoin="round" stroke-linecap="round" stroke-miterlimit="4"/></g></svg>