<?xml version="1.0" standalone="no"?><!-- Generator: Gravit.io --><svg xmlns="http://www.w3.org/2000/svg" xmlns:xlink="http://www.w3.org/1999/xlink" style="isolation:isolate" viewBox="0 0 24 24" width="24" height="24"><defs><clipPath id="_clipPath_7GrczZBKQTjWf9o7qax6XfTDAhxaUhYP"><rect width="24" height="24"/></clipPath></defs><g clip-path="url(#_clipPath_7GrczZBKQTjWf9o7qax6XfTDAhxaUhYP)"><path d=" M 22.54 6.42 C 22.298 5.454 21.558 4.691 20.6 4.42 C 18.88 4 12 4 12 4 C 12 4 5.12 4 3.4 4.46 C 2.442 4.731 1.702 5.494 1.46 6.46 C 1.145 8.206 0.991 9.976 1 11.75 C 0.989 13.537 1.143 15.321 1.46 17.08 C 1.726 18.015 2.462 18.743 3.4 19 C 5.12 19.46 12 19.46 12 19.46 C 12 19.46 18.88 19.46 20.6 19 C 21.558 18.729 22.298 17.966 22.54 17 C 22.852 15.268 23.006 13.51 23 11.75 C 23.011 9.963 22.857 8.179 22.54 6.42 L 22.54 6.42 Z " fill="none" vector-effect="non-scaling-stroke" stroke-width="2" stroke="rgb(255,255,255)" stroke-linejoin="round" stroke-linecap="round" stroke-miterlimit="4"/><path d=" M 9.75 15.02 L 15.5 11.75 L 9.75 8.48 L 9.75 15.02 L 9.75 15.02 Z " fill="none" vector-effect="non-scaling-stroke" stroke-width="2" stroke="rgb(255,255,255)" stroke-linejoin="round" stroke-linecap="round" stroke-miterlimit="4"/></g></svg>